# xmcd
#
# Track frame offsets:
#	150
#	11245
#	24402
#	37996
#	50716
#	63886
#	74267
#	85005
#	95819
#	109667
#	119733
#	132394
#	143226
#	154449
#	167095
#	177587
#	186854
#	197056
#	207762
#	219209
#	228934
#	239477
#	249552
#	258893
#
# Disc length: 3587 seconds
#
# Revision: 0
# Processed by: cddbd v1.5.2PL0 Copyright (c) Steve Scherf et al.
# Submitted via: EasyCDDAExtractor 15.3.0.1
#
DISCID=5f0e0118
DTITLE=LaVern Baker - Lavern and See See Rider
DYEAR=1900
DGENRE=Rhythm and Blues
TTITLE0=LaVern Baker - Lots and Lots of Love
TTITLE1=LaVern Baker - Of Course I Do
TTITLE2=LaVern Baker - You'll Be Crying
TTITLE3=LaVern Baker - Miracles
TTITLE4=LaVern Baker - I'm in a Crying Mood
TTITLE5=LaVern Baker - Mine All Mine
TTITLE6=LaVern Baker - Harbor Lights
TTITLE7=LaVern Baker - I'll Never Be Free
TTITLE8=LaVern Baker - Romance in the Dark
TTITLE9=LaVern Baker - Everybody's Somebody's Fool
TTITLE10=LaVern Baker - How Long Will It Be
TTITLE11=LaVern Baker - Fool That I Am
TTITLE12=LaVern Baker - See See Rider
TTITLE13=LaVern Baker - You Better Stop
TTITLE14=LaVern Baker - He's A Real Gone Guy
TTITLE15=Lavern Baker - Story of My Love
TTITLE16=LaVern Baker - You Said
TTITLE17=LaVern Baker - I'm Leavin' You
TTITLE18=LaVern Baker - Don't Let The Stars Get In Your Eyes
TTITLE19=LaVern Baker - Trying
TTITLE20=LaVern Baker - Half Of Your Love
TTITLE21=LaVern Baker - A Little Bird Told Me So
TTITLE22=LaVern Baker - Endless Love
TTITLE23=LaVern Baker - All The Time
EXTD=
EXTT0=
EXTT1=
EXTT2=
EXTT3=
EXTT4=
EXTT5=
EXTT6=
EXTT7=
EXTT8=
EXTT9=
EXTT10=
EXTT11=
EXTT12=
EXTT13=
EXTT14=
EXTT15=
EXTT16=
EXTT17=
EXTT18=
EXTT19=
EXTT20=
EXTT21=
EXTT22=
EXTT23=
PLAYORDER=
